<mxfile host="Electron" agent="Mozilla/5.0 (Macintosh; Intel Mac OS X 10_15_7) AppleWebKit/537.36 (KHTML, like Gecko) draw.io/28.1.2 Chrome/138.0.7204.243 Electron/37.4.0 Safari/537.36" version="28.1.2">
  <diagram name="Страница — 1" id="dKMRrHwn85Con9Q8A_We">
    <mxGraphModel dx="1502" dy="971" grid="1" gridSize="10" guides="1" tooltips="1" connect="1" arrows="1" fold="1" page="1" pageScale="1" pageWidth="1169" pageHeight="827" math="0" shadow="0">
      <root>
        <mxCell id="0" />
        <mxCell id="1" parent="0" />
        <mxCell id="fEQWVo7Ft60sEOtGP6YL-7" value="&lt;font style=&quot;font-size: 16px;&quot;&gt;Инфраструктура&lt;/font&gt;" style="rounded=1;whiteSpace=wrap;html=1;" parent="1" vertex="1">
          <mxGeometry x="400" y="630" width="155" height="60" as="geometry" />
        </mxCell>
        <mxCell id="fEQWVo7Ft60sEOtGP6YL-20" value="&lt;div&gt;- Проблемы консистентности данных&lt;/div&gt;&lt;div&gt;&lt;br&gt;&lt;/div&gt;&lt;div&gt;- Рост нагрузки на БД&lt;/div&gt;" style="text;html=1;align=center;verticalAlign=middle;whiteSpace=wrap;rounded=0;" parent="1" vertex="1">
          <mxGeometry x="60" y="465.5" width="160" height="91.5" as="geometry" />
        </mxCell>
        <mxCell id="EUId4G0_HDZgKGwEL3js-1" value="" style="endArrow=classic;html=1;rounded=0;" edge="1" parent="1">
          <mxGeometry width="50" height="50" relative="1" as="geometry">
            <mxPoint x="100" y="390" as="sourcePoint" />
            <mxPoint x="1140" y="390" as="targetPoint" />
          </mxGeometry>
        </mxCell>
        <mxCell id="EUId4G0_HDZgKGwEL3js-2" value="" style="endArrow=classic;html=1;rounded=0;" edge="1" parent="1">
          <mxGeometry width="50" height="50" relative="1" as="geometry">
            <mxPoint x="200" y="150" as="sourcePoint" />
            <mxPoint x="360" y="390" as="targetPoint" />
          </mxGeometry>
        </mxCell>
        <mxCell id="EUId4G0_HDZgKGwEL3js-3" value="" style="endArrow=classic;html=1;rounded=0;" edge="1" parent="1">
          <mxGeometry width="50" height="50" relative="1" as="geometry">
            <mxPoint x="495" y="150" as="sourcePoint" />
            <mxPoint x="655" y="390" as="targetPoint" />
          </mxGeometry>
        </mxCell>
        <mxCell id="EUId4G0_HDZgKGwEL3js-4" value="" style="endArrow=classic;html=1;rounded=0;" edge="1" parent="1">
          <mxGeometry width="50" height="50" relative="1" as="geometry">
            <mxPoint x="800" y="150" as="sourcePoint" />
            <mxPoint x="960" y="390" as="targetPoint" />
          </mxGeometry>
        </mxCell>
        <mxCell id="EUId4G0_HDZgKGwEL3js-5" value="" style="endArrow=classic;html=1;rounded=0;exitX=0.5;exitY=0;exitDx=0;exitDy=0;" edge="1" parent="1" source="EUId4G0_HDZgKGwEL3js-15">
          <mxGeometry width="50" height="50" relative="1" as="geometry">
            <mxPoint x="130" y="628.5" as="sourcePoint" />
            <mxPoint x="310" y="390" as="targetPoint" />
          </mxGeometry>
        </mxCell>
        <mxCell id="EUId4G0_HDZgKGwEL3js-6" value="" style="endArrow=classic;html=1;rounded=0;exitX=0.5;exitY=0;exitDx=0;exitDy=0;" edge="1" parent="1" source="fEQWVo7Ft60sEOtGP6YL-7">
          <mxGeometry width="50" height="50" relative="1" as="geometry">
            <mxPoint x="450" y="617.5" as="sourcePoint" />
            <mxPoint x="600" y="390" as="targetPoint" />
          </mxGeometry>
        </mxCell>
        <mxCell id="EUId4G0_HDZgKGwEL3js-7" value="" style="endArrow=classic;html=1;rounded=0;entryX=1;entryY=1;entryDx=0;entryDy=0;exitX=0.5;exitY=0;exitDx=0;exitDy=0;" edge="1" parent="1" source="EUId4G0_HDZgKGwEL3js-17">
          <mxGeometry width="50" height="50" relative="1" as="geometry">
            <mxPoint x="750" y="630" as="sourcePoint" />
            <mxPoint x="899.9999999999998" y="391.5000000000002" as="targetPoint" />
          </mxGeometry>
        </mxCell>
        <mxCell id="EUId4G0_HDZgKGwEL3js-9" value="&lt;font style=&quot;font-size: 16px;&quot;&gt;Люди&lt;/font&gt;" style="rounded=1;whiteSpace=wrap;html=1;" vertex="1" parent="1">
          <mxGeometry x="140" y="90" width="120" height="60" as="geometry" />
        </mxCell>
        <mxCell id="EUId4G0_HDZgKGwEL3js-10" value="&lt;div&gt;- Недостаток экспертизы&lt;/div&gt;&lt;div&gt;&lt;br&gt;&lt;/div&gt;&lt;div&gt;- Сопротивление команды&lt;/div&gt;" style="text;html=1;align=center;verticalAlign=middle;whiteSpace=wrap;rounded=0;" vertex="1" parent="1">
          <mxGeometry x="130" y="200" width="100" height="110" as="geometry" />
        </mxCell>
        <mxCell id="EUId4G0_HDZgKGwEL3js-11" value="&lt;font style=&quot;font-size: 16px;&quot;&gt;Процессы&lt;/font&gt;" style="rounded=1;whiteSpace=wrap;html=1;" vertex="1" parent="1">
          <mxGeometry x="430" y="90" width="120" height="60" as="geometry" />
        </mxCell>
        <mxCell id="EUId4G0_HDZgKGwEL3js-12" value="&lt;div&gt;- Слабая автоматизация CI/CD&lt;/div&gt;&lt;div&gt;&lt;br&gt;&lt;/div&gt;&lt;div&gt;-&amp;nbsp; Нет чёткого плана миграции&lt;/div&gt;" style="text;html=1;align=center;verticalAlign=middle;whiteSpace=wrap;rounded=0;" vertex="1" parent="1">
          <mxGeometry x="380" y="218.5" width="150" height="73" as="geometry" />
        </mxCell>
        <mxCell id="EUId4G0_HDZgKGwEL3js-13" value="&lt;font style=&quot;font-size: 16px;&quot;&gt;Технологии&lt;/font&gt;" style="rounded=1;whiteSpace=wrap;html=1;" vertex="1" parent="1">
          <mxGeometry x="740" y="90" width="120" height="60" as="geometry" />
        </mxCell>
        <mxCell id="EUId4G0_HDZgKGwEL3js-14" value="&lt;div&gt;- Трудности декомпозиции монолита&lt;/div&gt;&lt;div&gt;&lt;br&gt;&lt;/div&gt;&lt;div&gt;- Неэффективные API-контракты&lt;/div&gt;" style="text;html=1;align=center;verticalAlign=middle;whiteSpace=wrap;rounded=0;" vertex="1" parent="1">
          <mxGeometry x="710" y="194.25" width="130" height="121.5" as="geometry" />
        </mxCell>
        <mxCell id="EUId4G0_HDZgKGwEL3js-15" value="&lt;font style=&quot;font-size: 16px;&quot;&gt;Данные&lt;/font&gt;" style="rounded=1;whiteSpace=wrap;html=1;" vertex="1" parent="1">
          <mxGeometry x="90" y="630" width="120" height="60" as="geometry" />
        </mxCell>
        <mxCell id="EUId4G0_HDZgKGwEL3js-16" value="&lt;div&gt;- Недостаток CPU/RAM&lt;/div&gt;&lt;div&gt;&lt;br&gt;&lt;/div&gt;&lt;div&gt;- Задержки в сети&lt;/div&gt;" style="text;html=1;align=center;verticalAlign=middle;whiteSpace=wrap;rounded=0;" vertex="1" parent="1">
          <mxGeometry x="380" y="465.5" width="130" height="90" as="geometry" />
        </mxCell>
        <mxCell id="EUId4G0_HDZgKGwEL3js-17" value="&lt;font style=&quot;font-size: 16px;&quot;&gt;Безопасность&lt;/font&gt;" style="rounded=1;whiteSpace=wrap;html=1;" vertex="1" parent="1">
          <mxGeometry x="732.5" y="630" width="135" height="60" as="geometry" />
        </mxCell>
        <mxCell id="EUId4G0_HDZgKGwEL3js-18" value="&lt;div&gt;- Сложность RBAC/ABAC&lt;/div&gt;&lt;div&gt;&amp;nbsp;&lt;/div&gt;&lt;div&gt;- Риски через незащищённые API&lt;/div&gt;" style="text;html=1;align=center;verticalAlign=middle;whiteSpace=wrap;rounded=0;" vertex="1" parent="1">
          <mxGeometry x="700" y="470" width="140" height="85.5" as="geometry" />
        </mxCell>
        <mxCell id="EUId4G0_HDZgKGwEL3js-19" value="&lt;font&gt;&lt;b&gt;Риски при внедрении целевого решения&lt;/b&gt;&lt;/font&gt;" style="text;whiteSpace=wrap;html=1;fontSize=18;" vertex="1" parent="1">
          <mxGeometry x="930" y="420" width="220" height="40" as="geometry" />
        </mxCell>
      </root>
    </mxGraphModel>
  </diagram>
</mxfile>
